<svg xmlns="http://www.w3.org/2000/svg" viewBox="0 0 1024 1024" width="1024" height="1024" role="img" aria-label="Auspex">
  <title>Auspex</title>
  <defs>
    <radialGradient id="ground" cx="50%" cy="50%" r="62%">
      <stop offset="0" stop-color="#121217"/>
      <stop offset="1" stop-color="#08080A"/>
    </radialGradient>
  </defs>
  <rect x="18" y="18" width="988" height="988" rx="219" ry="219" fill="url(#ground)"/>
  <path fill="#E85F36" d="M558.5455 116.3636h23.2727v23.2727h-23.2727zM581.8182 139.6364h93.0909v23.2727h-93.0909zM581.8182 162.9091h93.0909v23.2727h-93.0909zM512 186.1818h46.5455v23.2727h-46.5455zM581.8182 186.1818h139.6364v23.2727h-139.6364zM558.5455 209.4545h93.0909v23.2727h-93.0909zM698.1818 209.4545h46.5455v23.2727h-46.5455zM558.5455 232.7273h93.0909v23.2727h-93.0909zM698.1818 232.7273h46.5455v23.2727h-46.5455zM535.2727 256h69.8182v23.2727h-69.8182zM512 279.2727h139.6364v23.2727h-139.6364zM721.4545 279.2727h46.5455v23.2727h-46.5455zM512 302.5455h162.9091v23.2727h-162.9091zM721.4545 302.5455h23.2727v23.2727h-23.2727zM581.8182 325.8182h69.8182v23.2727h-69.8182zM488.7273 349.0909h93.0909v23.2727h-93.0909zM605.0909 349.0909h69.8182v23.2727h-69.8182zM465.4545 372.3636h139.6364v23.2727h-139.6364zM628.3636 372.3636h46.5455v23.2727h-46.5455zM442.1818 395.6364h162.9091v23.2727h-162.9091zM628.3636 395.6364h23.2727v23.2727h-23.2727zM418.9091 418.9091h162.9091v23.2727h-162.9091zM628.3636 418.9091h23.2727v23.2727h-23.2727zM418.9091 442.1818h162.9091v23.2727h-162.9091zM628.3636 442.1818h23.2727v23.2727h-23.2727zM395.6364 465.4545h23.2727v23.2727h-23.2727zM488.7273 465.4545h23.2727v23.2727h-23.2727zM535.2727 465.4545h23.2727v23.2727h-23.2727zM372.3636 488.7273h23.2727v23.2727h-23.2727zM442.1818 488.7273h46.5455v23.2727h-46.5455zM512 488.7273h23.2727v23.2727h-23.2727zM418.9091 512h46.5455v23.2727h-46.5455zM581.8182 512h23.2727v23.2727h-23.2727zM279.2727 535.2727h69.8182v23.2727h-69.8182zM395.6364 535.2727h23.2727v23.2727h-23.2727zM558.5455 535.2727h23.2727v23.2727h-23.2727zM698.1818 535.2727h23.2727v23.2727h-23.2727zM256 558.5455h69.8182v23.2727h-69.8182zM535.2727 558.5455h23.2727v23.2727h-23.2727zM674.9091 558.5455h23.2727v23.2727h-23.2727zM232.7273 581.8182h46.5455v23.2727h-46.5455zM372.3636 581.8182h46.5455v23.2727h-46.5455zM512 581.8182h23.2727v23.2727h-23.2727zM651.6364 581.8182h23.2727v23.2727h-23.2727zM232.7273 605.0909h23.2727v23.2727h-23.2727zM349.0909 605.0909h23.2727v23.2727h-23.2727zM488.7273 605.0909h23.2727v23.2727h-23.2727zM605.0909 605.0909h23.2727v23.2727h-23.2727zM488.7273 628.3636h69.8182v23.2727h-69.8182zM512 651.6364h23.2727v23.2727h-23.2727zM605.0909 651.6364h23.2727v23.2727h-23.2727z"/>
  <path fill="#1A1A1E" d="M535.2727 116.3636h23.2727v23.2727h-23.2727zM581.8182 116.3636h93.0909v23.2727h-93.0909zM488.7273 139.6364h46.5455v23.2727h-46.5455zM558.5455 139.6364h23.2727v23.2727h-23.2727zM674.9091 139.6364h23.2727v23.2727h-23.2727zM488.7273 162.9091h46.5455v23.2727h-46.5455zM558.5455 162.9091h23.2727v23.2727h-23.2727zM721.4545 162.9091h23.2727v23.2727h-23.2727zM488.7273 186.1818h23.2727v23.2727h-23.2727zM721.4545 186.1818h46.5455v23.2727h-46.5455zM512 209.4545h46.5455v23.2727h-46.5455zM744.7273 209.4545h23.2727v23.2727h-23.2727zM768 232.7273h46.5455v23.2727h-46.5455zM488.7273 256h23.2727v23.2727h-23.2727zM651.6364 256h23.2727v23.2727h-23.2727zM814.5455 256h23.2727v23.2727h-23.2727zM488.7273 279.2727h23.2727v23.2727h-23.2727zM651.6364 279.2727h46.5455v23.2727h-46.5455zM768 279.2727h46.5455v23.2727h-46.5455zM488.7273 302.5455h23.2727v23.2727h-23.2727zM744.7273 302.5455h23.2727v23.2727h-23.2727zM488.7273 325.8182h46.5455v23.2727h-46.5455zM721.4545 325.8182h23.2727v23.2727h-23.2727zM465.4545 349.0909h23.2727v23.2727h-23.2727zM721.4545 349.0909h23.2727v23.2727h-23.2727zM442.1818 372.3636h23.2727v23.2727h-23.2727zM721.4545 372.3636h23.2727v23.2727h-23.2727zM418.9091 395.6364h23.2727v23.2727h-23.2727zM605.0909 395.6364h23.2727v23.2727h-23.2727zM744.7273 395.6364h23.2727v23.2727h-23.2727zM395.6364 418.9091h23.2727v23.2727h-23.2727zM605.0909 418.9091h23.2727v23.2727h-23.2727zM744.7273 418.9091h23.2727v23.2727h-23.2727zM395.6364 442.1818h23.2727v23.2727h-23.2727zM605.0909 442.1818h23.2727v23.2727h-23.2727zM744.7273 442.1818h23.2727v23.2727h-23.2727zM372.3636 465.4545h23.2727v23.2727h-23.2727zM581.8182 465.4545h23.2727v23.2727h-23.2727zM744.7273 465.4545h23.2727v23.2727h-23.2727zM349.0909 488.7273h23.2727v23.2727h-23.2727zM488.7273 488.7273h23.2727v23.2727h-23.2727zM581.8182 488.7273h23.2727v23.2727h-23.2727zM744.7273 488.7273h23.2727v23.2727h-23.2727zM279.2727 512h139.6364v23.2727h-139.6364zM465.4545 512h23.2727v23.2727h-23.2727zM558.5455 512h23.2727v23.2727h-23.2727zM721.4545 512h23.2727v23.2727h-23.2727zM256 535.2727h23.2727v23.2727h-23.2727zM349.0909 535.2727h46.5455v23.2727h-46.5455zM418.9091 535.2727h46.5455v23.2727h-46.5455zM512 535.2727h46.5455v23.2727h-46.5455zM721.4545 535.2727h23.2727v23.2727h-23.2727zM232.7273 558.5455h23.2727v23.2727h-23.2727zM349.0909 558.5455h69.8182v23.2727h-69.8182zM488.7273 558.5455h46.5455v23.2727h-46.5455zM698.1818 558.5455h23.2727v23.2727h-23.2727zM209.4545 581.8182h23.2727v23.2727h-23.2727zM325.8182 581.8182h46.5455v23.2727h-46.5455zM442.1818 581.8182h46.5455v23.2727h-46.5455zM674.9091 581.8182h23.2727v23.2727h-23.2727zM186.1818 605.0909h23.2727v23.2727h-23.2727zM302.5455 605.0909h46.5455v23.2727h-46.5455zM372.3636 605.0909h93.0909v23.2727h-93.0909zM628.3636 605.0909h46.5455v23.2727h-46.5455zM186.1818 628.3636h23.2727v23.2727h-23.2727zM279.2727 628.3636h23.2727v23.2727h-23.2727zM325.8182 628.3636h69.8182v23.2727h-69.8182zM465.4545 628.3636h23.2727v23.2727h-23.2727zM558.5455 628.3636h69.8182v23.2727h-69.8182zM209.4545 651.6364h23.2727v23.2727h-23.2727zM256 651.6364h23.2727v23.2727h-23.2727zM488.7273 651.6364h23.2727v23.2727h-23.2727zM535.2727 651.6364h23.2727v23.2727h-23.2727zM581.8182 651.6364h23.2727v23.2727h-23.2727zM628.3636 651.6364h23.2727v23.2727h-23.2727zM232.7273 674.9091h23.2727v23.2727h-23.2727zM488.7273 674.9091h23.2727v23.2727h-23.2727zM535.2727 674.9091h23.2727v23.2727h-23.2727zM581.8182 674.9091h23.2727v23.2727h-23.2727zM628.3636 674.9091h23.2727v23.2727h-23.2727zM512 698.1818h23.2727v23.2727h-23.2727zM558.5455 698.1818h23.2727v23.2727h-23.2727zM605.0909 698.1818h23.2727v23.2727h-23.2727zM651.6364 698.1818h23.2727v23.2727h-23.2727zM488.7273 721.4545h23.2727v23.2727h-23.2727zM581.8182 721.4545h46.5455v23.2727h-46.5455zM674.9091 721.4545h23.2727v23.2727h-23.2727z"/>
  <path fill="#F2B544" d="M721.4545 256h46.5455v23.2727h-46.5455zM698.1818 279.2727h23.2727v23.2727h-23.2727zM674.9091 302.5455h46.5455v23.2727h-46.5455zM651.6364 325.8182h69.8182v23.2727h-69.8182zM674.9091 349.0909h23.2727v23.2727h-23.2727zM651.6364 395.6364h23.2727v23.2727h-23.2727zM651.6364 418.9091h46.5455v23.2727h-46.5455zM651.6364 442.1818h69.8182v23.2727h-69.8182zM628.3636 465.4545h116.3636v23.2727h-116.3636zM605.0909 488.7273h139.6364v23.2727h-139.6364zM605.0909 512h116.3636v23.2727h-116.3636zM581.8182 535.2727h116.3636v23.2727h-116.3636zM558.5455 558.5455h116.3636v23.2727h-116.3636zM535.2727 581.8182h116.3636v23.2727h-116.3636zM209.4545 605.0909h23.2727v23.2727h-23.2727zM512 605.0909h93.0909v23.2727h-93.0909zM209.4545 628.3636h69.8182v23.2727h-69.8182zM232.7273 651.6364h23.2727v23.2727h-23.2727zM512 674.9091h23.2727v23.2727h-23.2727zM605.0909 674.9091h23.2727v23.2727h-23.2727zM535.2727 698.1818h23.2727v23.2727h-23.2727zM628.3636 698.1818h23.2727v23.2727h-23.2727zM512 721.4545h69.8182v23.2727h-69.8182zM628.3636 721.4545h46.5455v23.2727h-46.5455z"/>
  <path fill="#B83F24" d="M535.2727 162.9091h23.2727v23.2727h-23.2727zM674.9091 162.9091h46.5455v23.2727h-46.5455zM558.5455 186.1818h23.2727v23.2727h-23.2727zM651.6364 209.4545h46.5455v23.2727h-46.5455zM535.2727 232.7273h23.2727v23.2727h-23.2727zM744.7273 232.7273h23.2727v23.2727h-23.2727zM512 256h23.2727v23.2727h-23.2727zM605.0909 256h46.5455v23.2727h-46.5455zM535.2727 325.8182h46.5455v23.2727h-46.5455zM581.8182 349.0909h23.2727v23.2727h-23.2727zM605.0909 372.3636h23.2727v23.2727h-23.2727zM581.8182 418.9091h23.2727v23.2727h-23.2727zM581.8182 442.1818h23.2727v23.2727h-23.2727zM418.9091 465.4545h69.8182v23.2727h-69.8182zM512 465.4545h23.2727v23.2727h-23.2727zM558.5455 465.4545h23.2727v23.2727h-23.2727zM605.0909 465.4545h23.2727v23.2727h-23.2727zM395.6364 488.7273h46.5455v23.2727h-46.5455zM535.2727 488.7273h46.5455v23.2727h-46.5455zM488.7273 512h69.8182v23.2727h-69.8182zM465.4545 535.2727h46.5455v23.2727h-46.5455zM325.8182 558.5455h23.2727v23.2727h-23.2727zM418.9091 558.5455h69.8182v23.2727h-69.8182zM279.2727 581.8182h46.5455v23.2727h-46.5455zM418.9091 581.8182h23.2727v23.2727h-23.2727zM488.7273 581.8182h23.2727v23.2727h-23.2727zM256 605.0909h46.5455v23.2727h-46.5455zM465.4545 605.0909h23.2727v23.2727h-23.2727z"/>
  <path fill="#FFD24A" d="M674.9091 256h23.2727v23.2727h-23.2727zM768 256h46.5455v23.2727h-46.5455zM698.1818 349.0909h23.2727v23.2727h-23.2727zM674.9091 372.3636h46.5455v23.2727h-46.5455zM674.9091 395.6364h69.8182v23.2727h-69.8182zM698.1818 418.9091h46.5455v23.2727h-46.5455zM721.4545 442.1818h23.2727v23.2727h-23.2727z"/>
  <path fill="#0F0F12" d="M651.6364 232.7273h46.5455v23.2727h-46.5455zM698.1818 256h23.2727v23.2727h-23.2727z"/>
  <g>
    <rect x="190" y="755" width="191" height="49" rx="24.5" fill="#6EA8FE"/>
    <rect x="420" y="755" width="191" height="49" rx="24.5" fill="#F2B544"/>
    <rect x="650" y="755" width="191" height="49" rx="24.5" fill="#4FD08A"/>
  </g>
</svg>
